<svg width="24" height="24" viewBox="0 0 24 24" fill="none" xmlns="http://www.w3.org/2000/svg">
<rect width="24" height="24" rx="12" fill="#789AF7"/>
<path d="M18.6667 12.0404C18.6667 8.33601 15.6819 5.33301 12 5.33301C8.3181 5.33301 5.33334 8.33601 5.33334 12.0404C5.33334 15.3882 7.77123 18.1631 10.9583 18.6663V13.9793H9.26563V12.0404H10.9583V10.5627C10.9583 8.88165 11.9537 7.95309 13.4764 7.95309C14.2059 7.95309 14.9687 8.08409 14.9687 8.08409V9.73475H14.1281C13.3 9.73475 13.0417 10.2518 13.0417 10.7823V12.0404H14.8906L14.5951 13.9793H13.0417V18.6663C16.2288 18.1631 18.6667 15.3883 18.6667 12.0404Z" fill="white"/>
</svg>
