<svg width="24" height="24" viewBox="0 0 24 24" fill="none" xmlns="http://www.w3.org/2000/svg">
<rect width="24" height="24" rx="12" fill="#789AF7"/>
<path fill-rule="evenodd" clip-rule="evenodd" d="M14.6667 6H9.33333C7.49239 6 6 7.49239 6 9.33333V14.6667C6 16.5076 7.49239 18 9.33333 18H14.6667C16.5076 18 18 16.5076 18 14.6667V9.33333C18 7.49239 16.5076 6 14.6667 6ZM16.8333 14.6667C16.8297 15.8617 15.8617 16.8297 14.6667 16.8333H9.33333C8.13823 16.8297 7.17033 15.8617 7.16667 14.6667V9.33333C7.17033 8.13823 8.13823 7.17033 9.33333 7.16667H14.6667C15.8617 7.17033 16.8297 8.13823 16.8333 9.33333V14.6667ZM15.1667 9.5C15.5349 9.5 15.8333 9.20152 15.8333 8.83333C15.8333 8.46515 15.5349 8.16667 15.1667 8.16667C14.7985 8.16667 14.5 8.46515 14.5 8.83333C14.5 9.20152 14.7985 9.5 15.1667 9.5ZM12 9C10.3431 9 9 10.3431 9 12C9 13.6569 10.3431 15 12 15C13.6569 15 15 13.6569 15 12C15.0018 11.2038 14.6863 10.4397 14.1233 9.87672C13.5603 9.31373 12.7962 8.99823 12 9ZM10.1667 12C10.1667 13.0125 10.9875 13.8333 12 13.8333C13.0125 13.8333 13.8333 13.0125 13.8333 12C13.8333 10.9875 13.0125 10.1667 12 10.1667C10.9875 10.1667 10.1667 10.9875 10.1667 12Z" fill="white"/>
</svg>
