<svg width="24" height="24" viewBox="0 0 24 24" fill="none" xmlns="http://www.w3.org/2000/svg">
<rect width="24" height="24" rx="12" fill="#789AF7"/>
<path fill-rule="evenodd" clip-rule="evenodd" d="M7 6C6.44771 6 6 6.44771 6 7V17C6 17.5523 6.44771 18 7 18H17C17.5523 18 18 17.5523 18 17V7C18 6.44771 17.5523 6 17 6H7ZM9.68051 8.66848C9.68426 9.30598 9.20707 9.69879 8.64082 9.69598C8.10738 9.69317 7.64238 9.26848 7.64519 8.66942C7.64801 8.10598 8.09332 7.65317 8.67176 7.66629C9.25863 7.67942 9.68426 8.10973 9.68051 8.66848ZM12.1865 10.5078H10.5065H10.5055V16.2144H12.2811V16.0813C12.2811 15.828 12.2809 15.5747 12.2807 15.3213C12.2802 14.6454 12.2796 13.9688 12.2831 13.2931C12.284 13.1291 12.2915 12.9585 12.3337 12.8019C12.4921 12.2169 13.0181 11.8391 13.6049 11.9319C13.9818 11.9909 14.2311 12.2094 14.3361 12.5647C14.4009 12.7869 14.4299 13.0259 14.4327 13.2575C14.4403 13.9559 14.4393 14.6543 14.4382 15.3528C14.4378 15.5993 14.4374 15.846 14.4374 16.0925V16.2135H16.2187V16.0766C16.2187 15.7753 16.2185 15.474 16.2183 15.1727C16.218 14.4197 16.2176 13.6667 16.2196 12.9135C16.2205 12.5731 16.184 12.2375 16.1005 11.9085C15.9759 11.4191 15.7181 11.0141 15.299 10.7216C15.0018 10.5135 14.6755 10.3794 14.3109 10.3644C14.2693 10.3627 14.2275 10.3604 14.1854 10.3581C13.9989 10.3481 13.8094 10.3378 13.6311 10.3738C13.1211 10.476 12.6731 10.7094 12.3346 11.1209C12.2953 11.1681 12.2568 11.2161 12.1994 11.2876L12.1865 11.3038V10.5078ZM7.78776 16.2163H9.55495V10.5116H7.78776V16.2163Z" fill="white"/>
</svg>
