<svg width="24" height="24" viewBox="0 0 24 24" fill="none" xmlns="http://www.w3.org/2000/svg">
<rect width="24" height="24" rx="12" fill="#789AF7"/>
<path d="M18.3999 8.79777C18.324 8.51604 18.1756 8.25911 17.9695 8.05255C17.7634 7.84599 17.5068 7.69701 17.2253 7.62044C16.1813 7.33377 12.0046 7.32911 12.0046 7.32911C12.0046 7.32911 7.82861 7.32444 6.78395 7.59844C6.50256 7.67854 6.2465 7.82962 6.04032 8.0372C5.83415 8.24477 5.6848 8.50185 5.60661 8.78377C5.33128 9.82777 5.32861 11.9931 5.32861 11.9931C5.32861 11.9931 5.32595 14.1691 5.59928 15.2024C5.75261 15.7738 6.20261 16.2251 6.77461 16.3791C7.82928 16.6658 11.9946 16.6704 11.9946 16.6704C11.9946 16.6704 16.1713 16.6751 17.2153 16.4018C17.4969 16.3253 17.7538 16.1767 17.9604 15.9706C18.167 15.7644 18.3162 15.5079 18.3933 15.2264C18.6693 14.1831 18.6713 12.0184 18.6713 12.0184C18.6713 12.0184 18.6846 9.84177 18.3999 8.79777ZM10.6686 13.9991L10.6719 9.99911L14.1433 12.0024L10.6686 13.9991Z" fill="white"/>
</svg>
